<svg xmlns="http://www.w3.org/2000/svg" fill="none" viewBox="0 0 64 64" height="64" width="64">
<g clip-path="url(#clip0_437_5)">
<mask height="64" width="64" y="0" x="0" maskUnits="userSpaceOnUse" style="mask-type:luminance" id="mask0_437_5">
<path fill="white" d="M64 0H0V63.9893H64V0Z"></path>
</mask>
<g mask="url(#mask0_437_5)">
<path fill="white" d="M39.2958 6.41045C40.1795 6.41045 40.8958 5.69411 40.8958 4.81045C40.8958 3.92679 40.1795 3.21045 39.2958 3.21045C38.4122 3.21045 37.6958 3.92679 37.6958 4.81045C37.6958 5.69411 38.4122 6.41045 39.2958 6.41045Z"></path>
<path fill="white" d="M47.8612 6.41045C48.7448 6.41045 49.4612 5.69411 49.4612 4.81045C49.4612 3.92679 48.7448 3.21045 47.8612 3.21045C46.9775 3.21045 46.2612 3.92679 46.2612 4.81045C46.2612 5.69411 46.9775 6.41045 47.8612 6.41045Z"></path>
<path fill="white" d="M56.4267 6.43193C57.3103 6.43193 58.0267 5.71559 58.0267 4.83193C58.0267 3.94828 57.3103 3.23193 56.4267 3.23193C55.543 3.23193 54.8267 3.94828 54.8267 4.83193C54.8267 5.71559 55.543 6.43193 56.4267 6.43193Z"></path>
<path fill="white" d="M64 45.0133L63.9893 3.73333C63.9893 1.67467 62.3147 0 60.256 0H3.73333C1.67467 0 0 1.67467 0 3.73333V60.2453C0 62.304 1.67467 63.9787 3.73333 63.9787H60.2453C62.304 63.9787 63.9787 62.304 63.9787 60.2453V46.08H64V45.0133ZM12.512 46.08V62.9227H7.28533V46.08H12.512ZM13.5787 46.08H18.8053V62.9227H13.5787V46.08ZM19.872 46.08H25.0987V62.9227H19.872V46.08ZM26.1547 46.08H31.3813V62.9227H26.1547V46.08ZM32.448 46.08H37.6747V62.9227H32.448V46.08ZM38.7413 46.08H43.968V62.9227H38.7413V46.08ZM45.0347 46.08H50.2613V62.9227H45.0347V46.08ZM51.3173 46.08H56.544V62.9227H51.3173V46.08ZM1.06667 45.0133V9.71733H62.9227V45.0133H1.06667ZM3.73333 1.06667H60.2453C61.7173 1.06667 62.912 2.26133 62.912 3.73333V8.65067H1.06667V3.73333C1.06667 2.26133 2.26133 1.06667 3.73333 1.06667ZM1.06667 60.256V46.08H6.21867V62.9227H3.73333C2.26133 62.9227 1.06667 61.728 1.06667 60.256ZM62.9227 60.256C62.9227 61.728 61.728 62.9227 60.256 62.9227H57.6107V46.08H62.9227V60.256Z"></path>
<path fill="white" d="M19.6 15C18.7147 15 18 15.7147 18 16.6C18 17.2933 18.448 17.88 19.0667 18.104V37.208C19.0667 37.5067 19.3013 37.7413 19.6 37.7413C19.8987 37.7413 20.1333 37.5067 20.1333 37.208V18.0933C20.752 17.8693 21.2 17.2827 21.2 16.5893C21.2 15.7147 20.4853 15 19.6 15Z"></path>
<path fill="white" d="M28.2292 35.6931V16.8771C28.2292 16.5784 27.9945 16.3438 27.6959 16.3438C27.3972 16.3438 27.1625 16.5784 27.1625 16.8771V35.7144C26.5545 35.9384 26.1172 36.5251 26.1172 37.2078C26.1172 38.0931 26.8319 38.8078 27.7172 38.8078C28.6025 38.8078 29.3172 38.0931 29.3172 37.2078C29.3172 36.5038 28.8585 35.9064 28.2292 35.6931Z"></path>
<path stroke="white" d="M44.5 36.5C50.0228 36.5 54.5 32.0228 54.5 26.5C54.5 20.9772 50.0228 16.5 44.5 16.5C38.9772 16.5 34.5 20.9772 34.5 26.5C34.5 32.0228 38.9772 36.5 44.5 36.5Z"></path>
<path stroke="white" d="M44.5 30.5C46.7091 30.5 48.5 28.7091 48.5 26.5C48.5 24.2909 46.7091 22.5 44.5 22.5C42.2909 22.5 40.5 24.2909 40.5 26.5C40.5 28.7091 42.2909 30.5 44.5 30.5Z"></path>
</g>
</g>
<defs>
<clipPath id="clip0_437_5">
<rect fill="white" height="64" width="64"></rect>
</clipPath>
</defs>
</svg>
