<svg width="64" height="64" viewBox="0 0 64 64" fill="none" xmlns="http://www.w3.org/2000/svg">
<mask id="mask0_2055_216" style="mask-type:luminance" maskUnits="userSpaceOnUse" x="0" y="0" width="63" height="64">
<path d="M0.799988 0H62.735V64H0.799988V0Z" fill="white"></path>
</mask>
<g mask="url(#mask0_2055_216)">
<path d="M62.735 0H0.799988V61.935H9.20399C9.20399 61.553 9.31699 61.212 9.49299 60.903H1.83299V12.916H1.31599V11.883H1.83199V1.033H61.702V11.883H62.219V12.916H61.703V60.903H53.846C54.022 61.203 54.135 61.553 54.135 61.935H62.735V0Z" fill="white"></path>
<path d="M50.294 60.902H13.044C13.22 61.212 13.334 61.552 13.334 61.935H50.016C50.006 61.563 50.119 61.212 50.294 60.902ZM61.703 11.883H1.83298V12.915H61.703V11.883ZM1.83298 11.883H1.31598V12.915H1.83298V11.883ZM62.219 11.883H61.703V12.915H62.219V11.883ZM56.252 4.79999H54.187C54.1189 4.79919 54.0513 4.81201 53.9882 4.83771C53.9251 4.8634 53.8678 4.90146 53.8196 4.94963C53.7714 4.99779 53.7334 5.05511 53.7077 5.1182C53.682 5.18129 53.6692 5.24888 53.67 5.31699V7.38199C53.67 7.67099 53.898 7.89799 54.187 7.89799H56.252C56.541 7.89799 56.768 7.67099 56.768 7.38199V5.31699C56.7675 5.18013 56.7128 5.04904 56.6159 4.95236C56.519 4.85567 56.3878 4.80126 56.251 4.80099L56.252 4.79999ZM13.282 18.563H7.08698V19.595H13.282V18.563ZM13.354 30.035H7.15998V31.068H13.354V30.035ZM13.354 41.492H7.15998V42.525H13.354V41.492ZM13.354 52.953H7.15998V53.985H13.354V52.953ZM24.566 24.82H18.372V25.853H24.566V24.82ZM24.566 35.762H18.372V36.794H24.566V35.762ZM24.566 47.45H18.372V48.482H24.566V47.45Z" fill="white"></path>
<path d="M11.269 63.998C11.8161 63.9967 12.3404 63.7788 12.7273 63.3921C13.1143 63.0053 13.3324 62.4811 13.334 61.934H9.20398C9.20398 63.08 10.123 63.998 11.269 63.998Z" fill="white"></path>
<path d="M13.044 60.902H9.48299C9.30699 61.212 9.19299 61.552 9.19299 61.935H13.323C13.3263 61.5716 13.2297 61.2143 13.044 60.902ZM52.07 63.998C52.3411 63.9981 52.6096 63.9448 52.8602 63.8412C53.1107 63.7375 53.3383 63.5855 53.5301 63.3938C53.7219 63.2022 53.874 62.9746 53.9778 62.7241C54.0816 62.4736 54.135 62.2051 54.135 61.934H50.005C50.0066 62.4811 50.2247 63.0053 50.6116 63.3921C50.9986 63.7788 51.5229 63.9967 52.07 63.998Z" fill="white"></path>
<path d="M53.856 60.902H50.294C50.119 61.202 50.005 61.552 50.005 61.935H54.135C54.1332 61.5723 54.037 61.2163 53.856 60.902ZM47.796 4.81301H45.731C45.663 4.81234 45.5956 4.82523 45.5327 4.85092C45.4698 4.87662 45.4127 4.9146 45.3646 4.96265C45.3166 5.0107 45.2786 5.06785 45.2529 5.13075C45.2272 5.19366 45.2143 5.26106 45.215 5.32901V7.39401C45.215 7.68301 45.442 7.91001 45.731 7.91001H47.796C47.8639 7.91067 47.9313 7.89778 47.9942 7.87209C48.0571 7.84639 48.1143 7.80841 48.1623 7.76036C48.2104 7.71231 48.2484 7.65516 48.2741 7.59226C48.2998 7.52935 48.3127 7.46195 48.312 7.39401V5.32901C48.3115 5.19232 48.2569 5.06138 48.1603 4.96472C48.0636 4.86807 47.9327 4.81353 47.796 4.81301ZM8.65698 7.89801C8.86365 7.90326 9.06927 7.86709 9.26174 7.79163C9.4542 7.71617 9.62962 7.60295 9.77764 7.45864C9.92567 7.31433 10.0433 7.14185 10.1236 6.95136C10.204 6.76087 10.2453 6.55624 10.2453 6.34951C10.2453 6.14278 10.204 5.93814 10.1236 5.74765C10.0433 5.55716 9.92567 5.38468 9.77764 5.24037C9.62962 5.09606 9.4542 4.98284 9.26174 4.90738C9.06927 4.83192 8.86365 4.79575 8.65698 4.80101C8.25311 4.81127 7.86923 4.97892 7.5872 5.2682C7.30518 5.55748 7.14734 5.9455 7.14734 6.34951C7.14734 6.75351 7.30518 7.14153 7.5872 7.43081C7.86923 7.72009 8.25311 7.88774 8.65698 7.89801ZM16.947 7.89801C17.1536 7.90326 17.3593 7.86709 17.5517 7.79163C17.7442 7.71617 17.9196 7.60295 18.0676 7.45864C18.2157 7.31433 18.3333 7.14185 18.4136 6.95136C18.494 6.76087 18.5353 6.55624 18.5353 6.34951C18.5353 6.14278 18.494 5.93814 18.4136 5.74765C18.3333 5.55716 18.2157 5.38468 18.0676 5.24037C17.9196 5.09606 17.7442 4.98284 17.5517 4.90738C17.3593 4.83192 17.1536 4.79575 16.947 4.80101C16.5431 4.81127 16.1592 4.97892 15.8772 5.2682C15.5952 5.55748 15.4373 5.9455 15.4373 6.34951C15.4373 6.75351 15.5952 7.14153 15.8772 7.43081C16.1592 7.72009 16.5431 7.88774 16.947 7.89801ZM25.227 7.91001C25.4336 7.91526 25.6393 7.87909 25.8317 7.80363C26.0242 7.72817 26.1996 7.61495 26.3476 7.47064C26.4957 7.32633 26.6133 7.15385 26.6936 6.96336C26.774 6.77287 26.8153 6.56824 26.8153 6.36151C26.8153 6.15478 26.774 5.95014 26.6936 5.75965C26.6133 5.56916 26.4957 5.39668 26.3476 5.25237C26.1996 5.10806 26.0242 4.99484 25.8317 4.91938C25.6393 4.84392 25.4336 4.80775 25.227 4.81301C24.8231 4.82327 24.4392 4.99092 24.1572 5.2802C23.8752 5.56948 23.7173 5.9575 23.7173 6.36151C23.7173 6.76551 23.8752 7.15353 24.1572 7.44281C24.4392 7.73209 24.8231 7.89974 25.227 7.91001ZM34.829 18.563H28.634V19.595H34.829V18.563ZM34.901 30.023H28.706V31.056H34.901V30.023ZM34.901 41.492H28.706V42.525H34.901V41.492ZM34.901 52.953H28.706V53.985H34.901V52.953ZM46.01 24.82H39.815V25.853H46.01V24.82ZM46.01 35.762H39.815V36.794H46.01V35.762ZM46.01 47.45H39.815V48.482H46.01V47.45ZM56.737 18.563H50.542V19.595H56.737V18.563ZM56.799 30.023H50.604V31.056H56.8L56.799 30.023ZM56.799 41.492H50.604V42.525H56.8L56.799 41.492ZM56.799 52.953H50.604V53.985H56.8L56.799 52.953Z" fill="white"></path>
</g>
</svg>
