<svg width="100%" height="100%" viewBox="0 0 64 64" version="1.1" xmlns="http://www.w3.org/2000/svg" xmlns:xlink="http://www.w3.org/1999/xlink" xml:space="preserve" style="fill-rule:evenodd;clip-rule:evenodd;stroke-linejoin:round;stroke-miterlimit:2;">
    <g transform="matrix(1,0,0,1,-6.78741,-6.78741)">
        <path d="M15.407,58.375C14.884,54.052 16.934,50.847 19.849,49.458C23.491,47.723 28.625,48.772 32.028,54.21C38.017,63.782 43.381,66.935 50.303,67.039C49.17,67.501 48.003,67.897 46.807,68.222C41.018,67.195 36.094,63.535 30.757,55.005C27.871,50.394 23.583,49.341 20.495,50.812C17.566,52.208 15.846,55.829 17.455,60.586C16.737,59.884 16.054,59.146 15.407,58.375ZM67.076,50.211C66.619,51.342 66.096,52.439 65.512,53.497C62.871,55.069 59.624,55.521 56.369,55.283C53.418,55.068 50.28,54.136 48.016,53.917C47.366,53.854 46.8,53.848 46.351,53.967C46.067,54.043 45.842,54.171 45.727,54.42L45.727,54.42C45.575,54.754 45.613,55.124 45.763,55.509C45.963,56.018 46.351,56.541 46.868,57.06C49.424,59.624 55.029,61.978 59.489,61.186C58.868,61.76 58.223,62.309 57.556,62.83C53.107,62.778 48.222,60.543 45.805,58.118C44.333,56.641 43.787,55.056 44.363,53.796C44.787,52.87 45.699,52.417 47.013,52.377C49.294,52.308 53.015,53.535 56.478,53.787L56.478,53.787C60.477,54.08 64.492,53.251 67.076,50.211Z" style="fill:white;"></path>
    </g>
    <g transform="matrix(1,0,0,1,-6.78741,-6.78741)">
        <path d="M17.776,16.679C22.458,17.439 26.419,20.238 28.188,22.803C29.146,24.193 29.46,25.548 29.115,26.557L29.115,26.557C28.54,28.241 27.238,29.025 25.292,29.208C23.636,29.364 21.459,29.063 18.891,28.622L18.891,28.622C15.085,27.967 9.177,30.716 8.385,37.519C8.374,37.614 8.346,37.703 8.304,37.783C8.374,35.601 8.674,33.477 9.18,31.435C11.814,27.942 16.086,26.617 19.145,27.143C21.555,27.557 23.597,27.861 25.152,27.715C26.418,27.595 27.321,27.168 27.696,26.072C27.834,25.667 27.738,25.179 27.512,24.648C27.231,23.988 26.737,23.283 26.082,22.585C24.046,20.418 20.473,18.359 16.445,18.025C16.875,17.563 17.319,17.114 17.776,16.679ZM25.077,11.536C29.004,11.577 32.788,12.239 36.075,14.622C39.028,16.763 41.599,20.299 43.483,26.082C45.3,31.661 49.98,35.065 54.733,35.916C57.854,36.475 61.009,35.934 63.378,34.149C65.271,32.722 66.642,30.506 67.114,27.458C67.455,28.309 67.758,29.179 68.023,30.067C67.243,32.363 65.92,34.111 64.281,35.347C61.59,37.375 58.013,38.027 54.469,37.393C49.226,36.454 44.061,32.701 42.056,26.547L42.056,26.547C40.3,21.156 37.947,17.832 35.194,15.836C31.416,13.097 26.921,12.866 22.349,13.092C23.228,12.528 24.138,12.008 25.077,11.536Z" style="fill:white;"></path>
    </g>
    <g transform="matrix(1,0,0,1,-6.78741,-6.78741)">
        <path d="M9.303,46.621C12,41.005 17.583,36.478 24.494,35.6C29.537,34.959 35.297,36.255 41.15,40.532C46.774,44.642 53.949,46.295 59.858,45.259C63.949,44.541 67.427,42.514 69.286,39.088C69.276,40.064 69.221,41.029 69.122,41.979C67.697,43.631 65.852,44.875 63.739,45.72C56.993,48.419 47.438,46.985 40.265,41.743C34.785,37.739 29.404,36.488 24.684,37.088C17.661,37.98 12.123,42.953 9.989,48.856C9.732,48.124 9.503,47.378 9.303,46.621Z" style="fill:white;"></path>
    </g>
    <g transform="matrix(1,0,0,1,-6.78741,-6.78741)">
        <path d="M34.251,8.623C35.732,8.402 37.246,8.287 38.787,8.287C39.478,8.287 40.163,8.31 40.842,8.355C45.582,10.078 49.433,13.59 51.844,18.952C53.592,22.835 56.537,24.11 58.729,23.441C60.716,22.835 61.868,20.621 60.72,17.593C61.415,18.312 62.076,19.065 62.698,19.85C62.731,22.454 61.186,24.26 59.167,24.876C56.451,25.704 52.641,24.379 50.476,19.567L50.476,19.567C47.29,12.481 41.384,8.89 34.251,8.623Z" style="fill:white;"></path>
    </g>
    <path d="M64,32C64,14.327 49.673,0 32,0C14.327,0 0,14.327 0,32C0,49.673 14.327,64 32,64C49.673,64 64,49.673 64,32ZM62.5,32C62.5,48.845 48.845,62.5 32,62.5C15.155,62.5 1.5,48.845 1.5,32C1.5,15.155 15.155,1.5 32,1.5C48.845,1.5 62.5,15.155 62.5,32Z" style="fill:white;"></path>
</svg>
