<svg width="64" height="64" viewBox="0 0 64 64" fill="none" xmlns="http://www.w3.org/2000/svg">
<path d="M0 14.24V49.84H64V14.24H0ZM36.48 37.6V49.04H27.2V37.6H29.6V14.96H34V37.52H39.6V14.96H43.6V37.52H46V48.96H37.2V37.52H36.48V37.6ZM24.96 36.8V14.96H28.96V36.72C28.96 36.72 24.96 36.72 24.96 36.8ZM26.48 37.52V48.96H18.48V14.96H24.16V37.52H26.48ZM34.88 14.96H38.88V36.72H34.88V14.96ZM44.48 36.8V14.96H48.48V36.72C48.48 36.72 44.48 36.72 44.48 36.8ZM46.96 37.52H49.36V14.96H55.04V48.96H46.88L46.96 37.52ZM0.8 14.96H17.68V48.96H0.8V14.96ZM63.2 49.04H55.76V14.96H63.2V49.04Z" fill="white"></path>
<path d="M12.96 18.88C13.2 18.88 13.36 18.72 13.36 18.48V17.76C13.36 17.52 13.2 17.36 12.96 17.36C12.72 17.36 12.56 17.52 12.56 17.76V18.48C12.56 18.64 12.72 18.88 12.96 18.88ZM9.12 18.88C9.36 18.88 9.52 18.72 9.52 18.48V17.76C9.52 17.52 9.36 17.36 9.12 17.36C8.88 17.36 8.72 17.52 8.72 17.76V18.48C8.72 18.64 8.88 18.88 9.12 18.88ZM5.2 18.88C5.44 18.88 5.6 18.72 5.6 18.48V17.76C5.6 17.52 5.44 17.36 5.2 17.36C4.96 17.36 4.8 17.52 4.8 17.68V18.4C4.8 18.64 4.96 18.88 5.2 18.88ZM12.96 21.92C13.2 21.92 13.36 21.76 13.36 21.52V20.8C13.36 20.56 13.2 20.4 12.96 20.4C12.72 20.4 12.56 20.56 12.56 20.8V21.52C12.56 21.76 12.72 21.92 12.96 21.92ZM9.12 21.92C9.36 21.92 9.52 21.76 9.52 21.52V20.8C9.52 20.56 9.36 20.4 9.12 20.4C8.88 20.4 8.72 20.56 8.72 20.8V21.52C8.72 21.76 8.88 21.92 9.12 21.92ZM5.2 21.92C5.44 21.92 5.6 21.76 5.6 21.52V20.8C5.6 20.56 5.44 20.4 5.2 20.4C4.96 20.4 4.8 20.56 4.8 20.8V21.52C4.8 21.76 4.96 21.92 5.2 21.92ZM12.96 24.96C13.2 24.96 13.36 24.8 13.36 24.56V23.84C13.36 23.6 13.2 23.44 12.96 23.44C12.72 23.44 12.56 23.6 12.56 23.84V24.56C12.56 24.8 12.72 24.96 12.96 24.96ZM9.12 24.96C9.36 24.96 9.52 24.8 9.52 24.56V23.84C9.52 23.6 9.36 23.44 9.12 23.44C8.88 23.44 8.72 23.6 8.72 23.84V24.56C8.72 24.8 8.88 24.96 9.12 24.96ZM5.2 24.96C5.44 24.96 5.6 24.8 5.6 24.56V23.84C5.6 23.6 5.44 23.44 5.2 23.44C4.96 23.44 4.8 23.6 4.8 23.84V24.56C4.8 24.8 4.96 24.96 5.2 24.96ZM13.04 28.96C12.8 28.96 12.64 29.12 12.64 29.36V34.08C12.64 34.32 12.8 34.48 13.04 34.48C13.28 34.48 13.44 34.32 13.44 34.08V29.36C13.44 29.2 13.28 28.96 13.04 28.96ZM9.12 28.96C8.88 28.96 8.72 29.12 8.72 29.36V34.08C8.72 34.32 8.88 34.48 9.12 34.48C9.36 34.48 9.52 34.32 9.52 34.08V29.36C9.52 29.2 9.36 28.96 9.12 28.96ZM5.28 28.96C5.04 28.96 4.88 29.12 4.88 29.36V34.08C4.88 34.32 5.04 34.48 5.28 34.48C5.52 34.48 5.6 34.32 5.6 34.08V29.36C5.68 29.2 5.44 28.96 5.28 28.96ZM13.84 39.36H13.68V38.4C13.68 38.16 13.52 38 13.28 38C13.04 38 12.88 38.16 12.88 38.4V39.36H12.8C12.56 39.36 12.4 39.52 12.4 39.76C12.4 40 12.56 40.16 12.8 40.16H12.96V45.52C12.96 45.76 13.12 45.92 13.36 45.92C13.6 45.92 13.76 45.76 13.76 45.52V40.16H13.92C14.16 40.16 14.32 40 14.32 39.76C14.24 39.6 14.08 39.36 13.84 39.36ZM9.84 42.16H9.68V38.4C9.68 38.16 9.52 38 9.28 38C9.04 38 8.88 38.16 8.88 38.4V42.16H8.8C8.56 42.16 8.4 42.32 8.4 42.56C8.4 42.8 8.56 42.96 8.8 42.96H8.96V45.52C8.96 45.76 9.12 45.92 9.36 45.92C9.6 45.92 9.76 45.76 9.76 45.52V42.96H9.92C10.16 42.96 10.32 42.8 10.32 42.56C10.24 42.32 10.08 42.16 9.84 42.16ZM5.36 38.32C4.56 38.32 3.84 38.96 3.84 39.84C3.84 40.72 4.48 41.36 5.36 41.36C6.24 41.36 6.88 40.72 6.88 39.84C6.88 38.96 6.24 38.32 5.36 38.32ZM5.36 40.56C4.96 40.56 4.64 40.24 4.64 39.84C4.64 39.44 4.96 39.12 5.36 39.12C5.76 39.12 6.08 39.44 6.08 39.84C6.16 40.24 5.76 40.56 5.36 40.56ZM5.36 43.12C4.56 43.12 3.84 43.76 3.84 44.64C3.84 45.52 4.48 46.16 5.36 46.16C6.24 46.16 6.88 45.52 6.88 44.64C6.88 43.76 6.24 43.12 5.36 43.12ZM5.36 45.36C4.96 45.36 4.64 45.04 4.64 44.64C4.64 44.24 4.96 43.92 5.36 43.92C5.76 43.92 6.08 44.24 6.08 44.64C6.16 45.04 5.76 45.36 5.36 45.36Z" fill="white"></path>
</svg>
